<?xml version="1.0" encoding="UTF-8" standalone="no"?>
<!DOCTYPE svg PUBLIC "-//W3C//DTD SVG 1.1//EN"
 "http://www.w3.org/Graphics/SVG/1.1/DTD/svg11.dtd">
<!-- Generated by graphviz version 2.43.0 (0)
 -->
<!-- Title: EventModelSelection Pages: 1 -->
<svg width="1122pt" height="2697pt"
 viewBox="0.00 0.00 1122.00 2697.25" xmlns="http://www.w3.org/2000/svg" xmlns:xlink="http://www.w3.org/1999/xlink">
<g id="graph0" class="graph" transform="scale(1 1) rotate(0) translate(4 2693.25)">
<title>EventModelSelection</title>
<polygon fill="white" stroke="transparent" points="-4,4 -4,-2693.25 1118,-2693.25 1118,4 -4,4"/>
<!-- Start -->
<g id="node1" class="node">
<title>Start</title>
<ellipse fill="#dcfce7" stroke="#15803d" stroke-width="1.5" cx="584" cy="-2666.63" rx="95.42" ry="22.76"/>
<text text-anchor="middle" x="584" y="-2669.83" font-family="Helvetica,sans-Serif" font-size="11.00">START</text>
<text text-anchor="middle" x="584" y="-2657.83" font-family="Helvetica,sans-Serif" font-size="11.00">Timestamped event data</text>
</g>
<!-- QTemporal -->
<g id="node2" class="node">
<title>QTemporal</title>
<polygon fill="#dbeafe" stroke="#2563eb" stroke-width="1.5" points="584,-2599 454,-2506 584,-2413 714,-2506 584,-2599"/>
<text text-anchor="middle" x="584" y="-2539.7" font-family="Helvetica,sans-Serif" font-size="11.00">Is event timing itself</text>
<text text-anchor="middle" x="584" y="-2527.7" font-family="Helvetica,sans-Serif" font-size="11.00">biologically meaningful?</text>
<text text-anchor="middle" x="584" y="-2502.7" font-family="Helvetica,sans-Serif" font-size="11.00">Do we care about:</text>
<text text-anchor="middle" x="584" y="-2490.7" font-family="Helvetica,sans-Serif" font-size="11.00">• bursts</text>
<text text-anchor="middle" x="584" y="-2478.7" font-family="Helvetica,sans-Serif" font-size="11.00">• refractory periods</text>
<text text-anchor="middle" x="584" y="-2466.7" font-family="Helvetica,sans-Serif" font-size="11.00">• event history?</text>
</g>
<!-- Start&#45;&gt;QTemporal -->
<g id="edge1" class="edge">
<title>Start&#45;&gt;QTemporal</title>
<path fill="none" stroke="#4b5563" stroke-width="1.3" d="M584,-2643.9C584,-2634.3 584,-2622.26 584,-2609.32"/>
<polygon fill="#4b5563" stroke="#4b5563" stroke-width="1.3" points="587.5,-2609.28 584,-2599.28 580.5,-2609.28 587.5,-2609.28"/>
</g>
<!-- Bin -->
<g id="node3" class="node">
<title>Bin</title>
<polygon fill="#e0f2fe" stroke="#0284c7" stroke-width="1.5" points="592.5,-2358 431.5,-2358 431.5,-2289 592.5,-2289 592.5,-2358"/>
<text text-anchor="middle" x="512" y="-2345.2" font-family="Helvetica,sans-Serif" font-size="11.00">Bin events</text>
<text text-anchor="middle" x="512" y="-2320.2" font-family="Helvetica,sans-Serif" font-size="11.00">Choose Δt so within&#45;bin</text>
<text text-anchor="middle" x="512" y="-2308.2" font-family="Helvetica,sans-Serif" font-size="11.00">rate is ~constant</text>
<text text-anchor="middle" x="512" y="-2296.2" font-family="Helvetica,sans-Serif" font-size="11.00">Convert timestamps → counts</text>
</g>
<!-- QTemporal&#45;&gt;Bin -->
<g id="edge2" class="edge">
<title>QTemporal&#45;&gt;Bin</title>
<path fill="none" stroke="#4b5563" stroke-width="1.3" d="M555.44,-2433.4C546.53,-2411.07 536.99,-2387.15 529.12,-2367.43"/>
<polygon fill="#4b5563" stroke="#4b5563" stroke-width="1.3" points="532.36,-2366.1 525.41,-2358.11 525.86,-2368.7 532.36,-2366.1"/>
<text text-anchor="middle" x="545" y="-2383" font-family="Helvetica,sans-Serif" font-size="10.00">NO</text>
</g>
<!-- EstimateLambda -->
<g id="node12" class="node">
<title>EstimateLambda</title>
<polygon fill="#e0f2fe" stroke="#0284c7" stroke-width="1.5" points="737,-2267 569,-2267 569,-2222 737,-2222 737,-2267"/>
<text text-anchor="middle" x="653" y="-2254.2" font-family="Helvetica,sans-Serif" font-size="11.00">Estimate baseline intensity μ(t)</text>
<text text-anchor="middle" x="653" y="-2229.2" font-family="Helvetica,sans-Serif" font-size="11.00">Kernel / spline / moving window</text>
</g>
<!-- QTemporal&#45;&gt;EstimateLambda -->
<g id="edge15" class="edge">
<title>QTemporal&#45;&gt;EstimateLambda</title>
<path fill="none" stroke="#4b5563" stroke-width="1.3" d="M604.61,-2427.49C618,-2377.12 634.75,-2314.13 644.62,-2277.01"/>
<polygon fill="#4b5563" stroke="#4b5563" stroke-width="1.3" points="648.03,-2277.83 647.21,-2267.26 641.26,-2276.03 648.03,-2277.83"/>
<text text-anchor="middle" x="627.5" y="-2383" font-family="Helvetica,sans-Serif" font-size="10.00">YES</text>
</g>
<!-- Exposure -->
<g id="node4" class="node">
<title>Exposure</title>
<polygon fill="#e0f2fe" stroke="#0284c7" stroke-width="1.5" points="568.5,-2200 407.5,-2200 407.5,-2143 568.5,-2143 568.5,-2200"/>
<text text-anchor="middle" x="488" y="-2187.2" font-family="Helvetica,sans-Serif" font-size="11.00">Unequal observation windows</text>
<text text-anchor="middle" x="488" y="-2175.2" font-family="Helvetica,sans-Serif" font-size="11.00">across bins/subjects?</text>
<text text-anchor="middle" x="488" y="-2150.2" font-family="Helvetica,sans-Serif" font-size="11.00">Add offset(log(exposure))</text>
</g>
<!-- Bin&#45;&gt;Exposure -->
<g id="edge3" class="edge">
<title>Bin&#45;&gt;Exposure</title>
<path fill="none" stroke="#4b5563" stroke-width="1.3" d="M506.61,-2288.84C502.87,-2265.41 497.86,-2234.15 493.99,-2209.94"/>
<polygon fill="#4b5563" stroke="#4b5563" stroke-width="1.3" points="497.44,-2209.35 492.41,-2200.03 490.53,-2210.46 497.44,-2209.35"/>
</g>
<!-- QTrendBin -->
<g id="node5" class="node">
<title>QTrendBin</title>
<polygon fill="#dbeafe" stroke="#2563eb" stroke-width="1.5" points="392,-2098 273,-2066 392,-2034 511,-2066 392,-2098"/>
<text text-anchor="middle" x="392" y="-2069.2" font-family="Helvetica,sans-Serif" font-size="11.00">Is baseline event rate</text>
<text text-anchor="middle" x="392" y="-2057.2" font-family="Helvetica,sans-Serif" font-size="11.00">stable over time?</text>
</g>
<!-- Exposure&#45;&gt;QTrendBin -->
<g id="edge4" class="edge">
<title>Exposure&#45;&gt;QTrendBin</title>
<path fill="none" stroke="#4b5563" stroke-width="1.3" d="M462.27,-2142.76C449.9,-2129.43 434.99,-2113.35 422.1,-2099.45"/>
<polygon fill="#4b5563" stroke="#4b5563" stroke-width="1.3" points="424.54,-2096.93 415.17,-2091.98 419.4,-2101.69 424.54,-2096.93"/>
</g>
<!-- CountTimeModel -->
<g id="node6" class="node">
<title>CountTimeModel</title>
<polygon fill="#e0f2fe" stroke="#0284c7" stroke-width="1.5" points="343,-1962 207,-1962 207,-1917 343,-1917 343,-1962"/>
<text text-anchor="middle" x="275" y="-1949.2" font-family="Helvetica,sans-Serif" font-size="11.00">Include time trend f(time)</text>
<text text-anchor="middle" x="275" y="-1924.2" font-family="Helvetica,sans-Serif" font-size="11.00">Linear / spline / GAM</text>
</g>
<!-- QTrendBin&#45;&gt;CountTimeModel -->
<g id="edge6" class="edge">
<title>QTrendBin&#45;&gt;CountTimeModel</title>
<path fill="none" stroke="#4b5563" stroke-width="1.3" d="M368.6,-2040.1C349.48,-2019.75 322.41,-1990.95 302.3,-1969.55"/>
<polygon fill="#4b5563" stroke="#4b5563" stroke-width="1.3" points="304.63,-1966.92 295.23,-1962.03 299.53,-1971.71 304.63,-1966.92"/>
<text text-anchor="middle" x="349" y="-1998.5" font-family="Helvetica,sans-Serif" font-size="10.00">NO</text>
</g>
<!-- QDispersion -->
<g id="node7" class="node">
<title>QDispersion</title>
<polygon fill="#dbeafe" stroke="#2563eb" stroke-width="1.5" points="291,-1866 186,-1809 291,-1752 396,-1809 291,-1866"/>
<text text-anchor="middle" x="291" y="-1824.7" font-family="Helvetica,sans-Serif" font-size="11.00">Are counts</text>
<text text-anchor="middle" x="291" y="-1812.7" font-family="Helvetica,sans-Serif" font-size="11.00">overdispersed?</text>
<text text-anchor="middle" x="291" y="-1787.7" font-family="Helvetica,sans-Serif" font-size="11.00">Variance &gt;&gt; Mean</text>
</g>
<!-- QTrendBin&#45;&gt;QDispersion -->
<g id="edge5" class="edge">
<title>QTrendBin&#45;&gt;QDispersion</title>
<path fill="none" stroke="#4b5563" stroke-width="1.3" d="M389.53,-2034.4C386.12,-2002.52 378.3,-1951.65 361,-1911 352.96,-1892.11 341.08,-1873.15 329.37,-1856.84"/>
<polygon fill="#4b5563" stroke="#4b5563" stroke-width="1.3" points="332.03,-1854.55 323.29,-1848.57 326.39,-1858.7 332.03,-1854.55"/>
<text text-anchor="middle" x="402" y="-1942.5" font-family="Helvetica,sans-Serif" font-size="10.00">YES</text>
<text text-anchor="middle" x="402" y="-1931.5" font-family="Helvetica,sans-Serif" font-size="10.00">stable rate</text>
</g>
<!-- CountTimeModel&#45;&gt;QDispersion -->
<g id="edge7" class="edge">
<title>CountTimeModel&#45;&gt;QDispersion</title>
<path fill="none" stroke="#4b5563" stroke-width="1.3" d="M277.68,-1916.99C279.2,-1904.8 281.18,-1888.85 283.15,-1873.01"/>
<polygon fill="#4b5563" stroke="#4b5563" stroke-width="1.3" points="286.68,-1873 284.44,-1862.65 279.74,-1872.14 286.68,-1873"/>
</g>
<!-- PoissonGLM -->
<g id="node8" class="node">
<title>PoissonGLM</title>
<polygon fill="#fef3c7" stroke="#d97706" stroke-width="1.5" points="192,-1632.5 38,-1632.5 38,-1575.5 192,-1575.5 192,-1632.5"/>
<text text-anchor="middle" x="115" y="-1619.7" font-family="Helvetica,sans-Serif" font-size="11.00">Poisson regression</text>
<text text-anchor="middle" x="115" y="-1594.7" font-family="Helvetica,sans-Serif" font-size="11.00">log(E[Y]) =</text>
<text text-anchor="middle" x="115" y="-1582.7" font-family="Helvetica,sans-Serif" font-size="11.00">β0 + βGroup·Group + f(time)</text>
</g>
<!-- QDispersion&#45;&gt;PoissonGLM -->
<g id="edge8" class="edge">
<title>QDispersion&#45;&gt;PoissonGLM</title>
<path fill="none" stroke="#4b5563" stroke-width="1.3" d="M257.9,-1769.82C225.68,-1732.66 177.12,-1676.65 145.74,-1640.45"/>
<polygon fill="#4b5563" stroke="#4b5563" stroke-width="1.3" points="148.12,-1637.86 138.93,-1632.6 142.83,-1642.44 148.12,-1637.86"/>
<text text-anchor="middle" x="227" y="-1722" font-family="Helvetica,sans-Serif" font-size="10.00">NO</text>
</g>
<!-- NegBinGLMM -->
<g id="node9" class="node">
<title>NegBinGLMM</title>
<polygon fill="#fef3c7" stroke="#d97706" stroke-width="1.5" points="382,-1632.5 228,-1632.5 228,-1575.5 382,-1575.5 382,-1632.5"/>
<text text-anchor="middle" x="305" y="-1619.7" font-family="Helvetica,sans-Serif" font-size="11.00">Negative Binomial GLM(M)</text>
<text text-anchor="middle" x="305" y="-1594.7" font-family="Helvetica,sans-Serif" font-size="11.00">log(E[Y]) =</text>
<text text-anchor="middle" x="305" y="-1582.7" font-family="Helvetica,sans-Serif" font-size="11.00">β0 + βGroup·Group + f(time)</text>
</g>
<!-- QDispersion&#45;&gt;NegBinGLMM -->
<g id="edge9" class="edge">
<title>QDispersion&#45;&gt;NegBinGLMM</title>
<path fill="none" stroke="#4b5563" stroke-width="1.3" d="M294.73,-1753.87C297.16,-1718.73 300.25,-1673.82 302.41,-1642.57"/>
<polygon fill="#4b5563" stroke="#4b5563" stroke-width="1.3" points="305.91,-1642.74 303.1,-1632.52 298.92,-1642.26 305.91,-1642.74"/>
<text text-anchor="middle" x="307.5" y="-1722" font-family="Helvetica,sans-Serif" font-size="10.00">YES</text>
</g>
<!-- QZero -->
<g id="node10" class="node">
<title>QZero</title>
<polygon fill="#dbeafe" stroke="#2563eb" stroke-width="1.5" points="134,-1407.5 0,-1363.5 134,-1319.5 268,-1363.5 134,-1407.5"/>
<text text-anchor="middle" x="134" y="-1372.7" font-family="Helvetica,sans-Serif" font-size="11.00">Structural excess zeros?</text>
<text text-anchor="middle" x="134" y="-1360.7" font-family="Helvetica,sans-Serif" font-size="11.00">(more zeros than</text>
<text text-anchor="middle" x="134" y="-1348.7" font-family="Helvetica,sans-Serif" font-size="11.00">Poisson/NB predicts)</text>
</g>
<!-- PoissonGLM&#45;&gt;QZero -->
<g id="edge10" class="edge">
<title>PoissonGLM&#45;&gt;QZero</title>
<path fill="none" stroke="#4b5563" stroke-width="1.3" d="M117.22,-1575.17C120.31,-1536.4 125.96,-1465.4 129.85,-1416.62"/>
<polygon fill="#4b5563" stroke="#4b5563" stroke-width="1.3" points="133.34,-1416.81 130.65,-1406.57 126.37,-1416.26 133.34,-1416.81"/>
</g>
<!-- NegBinGLMM&#45;&gt;QZero -->
<g id="edge11" class="edge">
<title>NegBinGLMM&#45;&gt;QZero</title>
<path fill="none" stroke="#4b5563" stroke-width="1.3" d="M285.05,-1575.17C255.48,-1533.94 199.78,-1456.25 164.91,-1407.61"/>
<polygon fill="#4b5563" stroke="#4b5563" stroke-width="1.3" points="167.75,-1405.56 159.08,-1399.47 162.06,-1409.64 167.75,-1405.56"/>
</g>
<!-- ZeroInflated -->
<g id="node11" class="node">
<title>ZeroInflated</title>
<polygon fill="#fef3c7" stroke="#d97706" stroke-width="1.5" points="334.5,-1221.5 185.5,-1221.5 185.5,-1164.5 334.5,-1164.5 334.5,-1221.5"/>
<text text-anchor="middle" x="260" y="-1208.7" font-family="Helvetica,sans-Serif" font-size="11.00">Zero&#45;inflated / hurdle model</text>
<text text-anchor="middle" x="260" y="-1183.7" font-family="Helvetica,sans-Serif" font-size="11.00">Separate:</text>
<text text-anchor="middle" x="260" y="-1171.7" font-family="Helvetica,sans-Serif" font-size="11.00">absence vs. event rate</text>
</g>
<!-- QZero&#45;&gt;ZeroInflated -->
<g id="edge12" class="edge">
<title>QZero&#45;&gt;ZeroInflated</title>
<path fill="none" stroke="#4b5563" stroke-width="1.3" d="M160.11,-1327.59C181.49,-1298.98 211.64,-1258.67 233.21,-1229.82"/>
<polygon fill="#4b5563" stroke="#4b5563" stroke-width="1.3" points="236.15,-1231.74 239.33,-1221.64 230.54,-1227.55 236.15,-1231.74"/>
<text text-anchor="middle" x="200.5" y="-1287" font-family="Helvetica,sans-Serif" font-size="10.00">YES</text>
</g>
<!-- QSubject -->
<g id="node24" class="node">
<title>QSubject</title>
<polygon fill="#ede9fe" stroke="#7c3aed" stroke-width="1.5" points="260,-1069 111,-1013 260,-957 409,-1013 260,-1069"/>
<text text-anchor="middle" x="260" y="-1028.2" font-family="Helvetica,sans-Serif" font-size="11.00">Important</text>
<text text-anchor="middle" x="260" y="-1016.2" font-family="Helvetica,sans-Serif" font-size="11.00">between&#45;subject variability?</text>
<text text-anchor="middle" x="260" y="-1004.2" font-family="Helvetica,sans-Serif" font-size="11.00">(repeated bins/events</text>
<text text-anchor="middle" x="260" y="-992.2" font-family="Helvetica,sans-Serif" font-size="11.00">per subject)</text>
</g>
<!-- QZero&#45;&gt;QSubject -->
<g id="edge13" class="edge">
<title>QZero&#45;&gt;QSubject</title>
<path fill="none" stroke="#4b5563" stroke-width="1.3" d="M128.55,-1321.16C123.9,-1271.86 121.92,-1188.07 151,-1124 162.58,-1098.49 182.78,-1075.53 202.68,-1057.26"/>
<polygon fill="#4b5563" stroke="#4b5563" stroke-width="1.3" points="205.14,-1059.76 210.27,-1050.49 200.48,-1054.53 205.14,-1059.76"/>
<text text-anchor="middle" x="159" y="-1190.5" font-family="Helvetica,sans-Serif" font-size="10.00">NO</text>
</g>
<!-- ZeroInflated&#45;&gt;QSubject -->
<g id="edge14" class="edge">
<title>ZeroInflated&#45;&gt;QSubject</title>
<path fill="none" stroke="#4b5563" stroke-width="1.3" d="M260,-1164.19C260,-1141.53 260,-1108.63 260,-1079.39"/>
<polygon fill="#4b5563" stroke="#4b5563" stroke-width="1.3" points="263.5,-1079.22 260,-1069.22 256.5,-1079.22 263.5,-1079.22"/>
</g>
<!-- QStationaryPP -->
<g id="node13" class="node">
<title>QStationaryPP</title>
<polygon fill="#dbeafe" stroke="#2563eb" stroke-width="1.5" points="657,-2098 547,-2066 657,-2034 767,-2066 657,-2098"/>
<text text-anchor="middle" x="657" y="-2069.2" font-family="Helvetica,sans-Serif" font-size="11.00">Is baseline intensity</text>
<text text-anchor="middle" x="657" y="-2057.2" font-family="Helvetica,sans-Serif" font-size="11.00">μ(t) stable?</text>
</g>
<!-- EstimateLambda&#45;&gt;QStationaryPP -->
<g id="edge16" class="edge">
<title>EstimateLambda&#45;&gt;QStationaryPP</title>
<path fill="none" stroke="#4b5563" stroke-width="1.3" d="M653.49,-2221.86C654.13,-2193.62 655.26,-2143.64 656.07,-2108.1"/>
<polygon fill="#4b5563" stroke="#4b5563" stroke-width="1.3" points="659.57,-2108.11 656.3,-2098.03 652.57,-2107.95 659.57,-2108.11"/>
</g>
<!-- ModelLambda -->
<g id="node14" class="node">
<title>ModelLambda</title>
<polygon fill="#e0f2fe" stroke="#0284c7" stroke-width="1.5" points="653.5,-1968 552.5,-1968 552.5,-1911 653.5,-1911 653.5,-1968"/>
<text text-anchor="middle" x="603" y="-1955.2" font-family="Helvetica,sans-Serif" font-size="11.00">Model μ(t)</text>
<text text-anchor="middle" x="603" y="-1930.2" font-family="Helvetica,sans-Serif" font-size="11.00">Parametric decay</text>
<text text-anchor="middle" x="603" y="-1918.2" font-family="Helvetica,sans-Serif" font-size="11.00">or spline/GAM</text>
</g>
<!-- QStationaryPP&#45;&gt;ModelLambda -->
<g id="edge18" class="edge">
<title>QStationaryPP&#45;&gt;ModelLambda</title>
<path fill="none" stroke="#4b5563" stroke-width="1.3" d="M645.02,-2037.37C637.36,-2019.72 627.34,-1996.63 619.01,-1977.41"/>
<polygon fill="#4b5563" stroke="#4b5563" stroke-width="1.3" points="622.14,-1975.83 614.95,-1968.05 615.72,-1978.62 622.14,-1975.83"/>
<text text-anchor="middle" x="657.5" y="-2004" font-family="Helvetica,sans-Serif" font-size="10.00">NO</text>
<text text-anchor="middle" x="657.5" y="-1993" font-family="Helvetica,sans-Serif" font-size="10.00">changing μ</text>
</g>
<!-- QHistoryConst -->
<g id="node15" class="node">
<title>QHistoryConst</title>
<polygon fill="#dbeafe" stroke="#2563eb" stroke-width="1.5" points="886,-1853 759,-1809 886,-1765 1013,-1809 886,-1853"/>
<text text-anchor="middle" x="886" y="-1818.2" font-family="Helvetica,sans-Serif" font-size="11.00">μ(t) constant.</text>
<text text-anchor="middle" x="886" y="-1806.2" font-family="Helvetica,sans-Serif" font-size="11.00">Does event history</text>
<text text-anchor="middle" x="886" y="-1794.2" font-family="Helvetica,sans-Serif" font-size="11.00">modify future intensity?</text>
</g>
<!-- QStationaryPP&#45;&gt;QHistoryConst -->
<g id="edge17" class="edge">
<title>QStationaryPP&#45;&gt;QHistoryConst</title>
<path fill="none" stroke="#4b5563" stroke-width="1.3" d="M679.37,-2040.09C718.96,-1996.01 801.66,-1903.92 849.56,-1850.58"/>
<polygon fill="#4b5563" stroke="#4b5563" stroke-width="1.3" points="852.29,-1852.78 856.37,-1843 847.08,-1848.1 852.29,-1852.78"/>
<text text-anchor="middle" x="818.5" y="-1942.5" font-family="Helvetica,sans-Serif" font-size="10.00">YES</text>
<text text-anchor="middle" x="818.5" y="-1931.5" font-family="Helvetica,sans-Serif" font-size="10.00">constant μ</text>
</g>
<!-- QHistoryVar -->
<g id="node16" class="node">
<title>QHistoryVar</title>
<polygon fill="#dbeafe" stroke="#2563eb" stroke-width="1.5" points="596,-1865 469,-1809 596,-1753 723,-1809 596,-1865"/>
<text text-anchor="middle" x="596" y="-1824.2" font-family="Helvetica,sans-Serif" font-size="11.00">μ(t) time&#45;varying.</text>
<text text-anchor="middle" x="596" y="-1812.2" font-family="Helvetica,sans-Serif" font-size="11.00">After removing μ(t),</text>
<text text-anchor="middle" x="596" y="-1800.2" font-family="Helvetica,sans-Serif" font-size="11.00">does event history</text>
<text text-anchor="middle" x="596" y="-1788.2" font-family="Helvetica,sans-Serif" font-size="11.00">modify future intensity?</text>
</g>
<!-- ModelLambda&#45;&gt;QHistoryVar -->
<g id="edge19" class="edge">
<title>ModelLambda&#45;&gt;QHistoryVar</title>
<path fill="none" stroke="#4b5563" stroke-width="1.3" d="M601.5,-1910.93C600.91,-1900.11 600.21,-1887.2 599.5,-1874.28"/>
<polygon fill="#4b5563" stroke="#4b5563" stroke-width="1.3" points="602.98,-1873.76 598.94,-1863.97 595.99,-1874.14 602.98,-1873.76"/>
</g>
<!-- HomogeneousPoisson -->
<g id="node17" class="node">
<title>HomogeneousPoisson</title>
<polygon fill="#fef3c7" stroke="#d97706" stroke-width="1.5" points="1114,-1489 944,-1489 944,-1432 1114,-1432 1114,-1489"/>
<text text-anchor="middle" x="1029" y="-1476.2" font-family="Helvetica,sans-Serif" font-size="11.00">Homogeneous Poisson Process</text>
<text text-anchor="middle" x="1029" y="-1451.2" font-family="Helvetica,sans-Serif" font-size="11.00">λ(t) = constant</text>
<text text-anchor="middle" x="1029" y="-1439.2" font-family="Helvetica,sans-Serif" font-size="11.00">Independent events</text>
</g>
<!-- QHistoryConst&#45;&gt;HomogeneousPoisson -->
<g id="edge20" class="edge">
<title>QHistoryConst&#45;&gt;HomogeneousPoisson</title>
<path fill="none" stroke="#4b5563" stroke-width="1.3" d="M901.58,-1770.26C929.17,-1703.39 986.32,-1564.91 1013.71,-1498.54"/>
<polygon fill="#4b5563" stroke="#4b5563" stroke-width="1.3" points="1016.95,-1499.87 1017.53,-1489.29 1010.48,-1497.2 1016.95,-1499.87"/>
<text text-anchor="middle" x="930" y="-1722" font-family="Helvetica,sans-Serif" font-size="10.00">NO</text>
</g>
<!-- QHistoryStructure -->
<g id="node19" class="node">
<title>QHistoryStructure</title>
<polygon fill="#dbeafe" stroke="#2563eb" stroke-width="1.5" points="682,-1697 512,-1604 682,-1511 852,-1604 682,-1697"/>
<text text-anchor="middle" x="682" y="-1637.7" font-family="Helvetica,sans-Serif" font-size="11.00">What structure describes</text>
<text text-anchor="middle" x="682" y="-1625.7" font-family="Helvetica,sans-Serif" font-size="11.00">the dependence?</text>
<text text-anchor="middle" x="682" y="-1600.7" font-family="Helvetica,sans-Serif" font-size="11.00">Is conditional intensity a direct</text>
<text text-anchor="middle" x="682" y="-1588.7" font-family="Helvetica,sans-Serif" font-size="11.00">function of past event times,</text>
<text text-anchor="middle" x="682" y="-1576.7" font-family="Helvetica,sans-Serif" font-size="11.00">or are inter&#45;event intervals</text>
<text text-anchor="middle" x="682" y="-1564.7" font-family="Helvetica,sans-Serif" font-size="11.00">themselves the modeled object?</text>
</g>
<!-- QHistoryConst&#45;&gt;QHistoryStructure -->
<g id="edge21" class="edge">
<title>QHistoryConst&#45;&gt;QHistoryStructure</title>
<path fill="none" stroke="#4b5563" stroke-width="1.3" d="M853.68,-1775.83C825.67,-1747.97 784.24,-1706.74 749.1,-1671.77"/>
<polygon fill="#4b5563" stroke="#4b5563" stroke-width="1.3" points="751.26,-1668.98 741.7,-1664.41 746.32,-1673.94 751.26,-1668.98"/>
<text text-anchor="middle" x="812.5" y="-1722" font-family="Helvetica,sans-Serif" font-size="10.00">YES</text>
</g>
<!-- InhomogeneousPoisson -->
<g id="node18" class="node">
<title>InhomogeneousPoisson</title>
<polygon fill="#fef3c7" stroke="#d97706" stroke-width="1.5" points="444.5,-1489 267.5,-1489 267.5,-1432 444.5,-1432 444.5,-1489"/>
<text text-anchor="middle" x="356" y="-1476.2" font-family="Helvetica,sans-Serif" font-size="11.00">Inhomogeneous Poisson Process</text>
<text text-anchor="middle" x="356" y="-1451.2" font-family="Helvetica,sans-Serif" font-size="11.00">λ(t) = μ(t)</text>
<text text-anchor="middle" x="356" y="-1439.2" font-family="Helvetica,sans-Serif" font-size="11.00">No history effect</text>
</g>
<!-- QHistoryVar&#45;&gt;InhomogeneousPoisson -->
<g id="edge22" class="edge">
<title>QHistoryVar&#45;&gt;InhomogeneousPoisson</title>
<path fill="none" stroke="#4b5563" stroke-width="1.3" d="M556.36,-1770.18C536.19,-1749.69 512.17,-1723.25 494,-1697 441.28,-1620.85 452.09,-1587.59 400,-1511 396.85,-1506.37 393.3,-1501.7 389.62,-1497.19"/>
<polygon fill="#4b5563" stroke="#4b5563" stroke-width="1.3" points="392.05,-1494.63 382.92,-1489.26 386.7,-1499.15 392.05,-1494.63"/>
<text text-anchor="middle" x="527" y="-1722" font-family="Helvetica,sans-Serif" font-size="10.00">NO</text>
</g>
<!-- QHistoryVar&#45;&gt;QHistoryStructure -->
<g id="edge23" class="edge">
<title>QHistoryVar&#45;&gt;QHistoryStructure</title>
<path fill="none" stroke="#4b5563" stroke-width="1.3" d="M615.73,-1761.43C624.79,-1740.05 635.82,-1714.01 646.26,-1689.36"/>
<polygon fill="#4b5563" stroke="#4b5563" stroke-width="1.3" points="649.55,-1690.57 650.23,-1680 643.1,-1687.84 649.55,-1690.57"/>
<text text-anchor="middle" x="641.5" y="-1722" font-family="Helvetica,sans-Serif" font-size="10.00">YES</text>
</g>
<!-- QPointGOF -->
<g id="node23" class="node">
<title>QPointGOF</title>
<polygon fill="#fce7f3" stroke="#be185d" stroke-width="1.5" points="533,-1262 393,-1193 533,-1124 673,-1193 533,-1262"/>
<text text-anchor="middle" x="533" y="-1214.7" font-family="Helvetica,sans-Serif" font-size="11.00">Point&#45;process GOF check</text>
<text text-anchor="middle" x="533" y="-1189.7" font-family="Helvetica,sans-Serif" font-size="11.00">Time&#45;rescaling theorem:</text>
<text text-anchor="middle" x="533" y="-1177.7" font-family="Helvetica,sans-Serif" font-size="11.00">are rescaled inter&#45;event</text>
<text text-anchor="middle" x="533" y="-1165.7" font-family="Helvetica,sans-Serif" font-size="11.00">times ~ Exp(1)?</text>
</g>
<!-- HomogeneousPoisson&#45;&gt;QPointGOF -->
<g id="edge27" class="edge">
<title>HomogeneousPoisson&#45;&gt;QPointGOF</title>
<path fill="none" stroke="#4b5563" stroke-width="1.3" d="M1029.63,-1431.94C1028.8,-1399.94 1022.43,-1347.66 992,-1317 944.24,-1268.87 768.57,-1231.83 648.94,-1211.49"/>
<polygon fill="#4b5563" stroke="#4b5563" stroke-width="1.3" points="649.43,-1208.03 638.99,-1209.82 648.27,-1214.93 649.43,-1208.03"/>
</g>
<!-- InhomogeneousPoisson&#45;&gt;QPointGOF -->
<g id="edge28" class="edge">
<title>InhomogeneousPoisson&#45;&gt;QPointGOF</title>
<path fill="none" stroke="#4b5563" stroke-width="1.3" d="M349.87,-1431.94C344.66,-1401.81 340.77,-1353.02 360,-1317 379.84,-1279.84 416.46,-1251.34 450.91,-1231.18"/>
<polygon fill="#4b5563" stroke="#4b5563" stroke-width="1.3" points="452.65,-1234.21 459.61,-1226.23 449.19,-1228.13 452.65,-1234.21"/>
</g>
<!-- Hawkes -->
<g id="node20" class="node">
<title>Hawkes</title>
<polygon fill="#fef3c7" stroke="#d97706" stroke-width="1.5" points="973.5,-1398 812.5,-1398 812.5,-1329 973.5,-1329 973.5,-1398"/>
<text text-anchor="middle" x="893" y="-1385.2" font-family="Helvetica,sans-Serif" font-size="11.00">Hawkes / self&#45;exciting process</text>
<text text-anchor="middle" x="893" y="-1360.2" font-family="Helvetica,sans-Serif" font-size="11.00">λ(t) = μ(t) + Σ g(t−ti), g ≥ 0</text>
<text text-anchor="middle" x="893" y="-1348.2" font-family="Helvetica,sans-Serif" font-size="11.00">Additive excitation kernel</text>
<text text-anchor="middle" x="893" y="-1336.2" font-family="Helvetica,sans-Serif" font-size="11.00">(clustering, branching ratio)</text>
</g>
<!-- QHistoryStructure&#45;&gt;Hawkes -->
<g id="edge24" class="edge">
<title>QHistoryStructure&#45;&gt;Hawkes</title>
<path fill="none" stroke="#4b5563" stroke-width="1.3" d="M736.6,-1540.77C749.65,-1524.49 762.98,-1506.55 774,-1489 788.91,-1465.26 783.15,-1453.62 801,-1432 809.24,-1422.02 819.27,-1412.73 829.63,-1404.44"/>
<polygon fill="#4b5563" stroke="#4b5563" stroke-width="1.3" points="831.82,-1407.18 837.6,-1398.3 827.55,-1401.63 831.82,-1407.18"/>
<text text-anchor="middle" x="863.5" y="-1463.5" font-family="Helvetica,sans-Serif" font-size="10.00">intensity = f(past events),</text>
<text text-anchor="middle" x="863.5" y="-1452.5" font-family="Helvetica,sans-Serif" font-size="10.00">additive, non&#45;negative kernel</text>
</g>
<!-- SelfCorrecting -->
<g id="node21" class="node">
<title>SelfCorrecting</title>
<polygon fill="#fef3c7" stroke="#d97706" stroke-width="1.5" points="557.5,-1404 378.5,-1404 378.5,-1323 557.5,-1323 557.5,-1404"/>
<text text-anchor="middle" x="468" y="-1391.2" font-family="Helvetica,sans-Serif" font-size="11.00">Self&#45;correcting / inhibitory process</text>
<text text-anchor="middle" x="468" y="-1366.2" font-family="Helvetica,sans-Serif" font-size="11.00">λ(t) = μ(t) − Σ h(t−ti)</text>
<text text-anchor="middle" x="468" y="-1354.2" font-family="Helvetica,sans-Serif" font-size="11.00">Subtractive full&#45;history term</text>
<text text-anchor="middle" x="468" y="-1342.2" font-family="Helvetica,sans-Serif" font-size="11.00">(active suppression, not just</text>
<text text-anchor="middle" x="468" y="-1330.2" font-family="Helvetica,sans-Serif" font-size="11.00">the last interval)</text>
</g>
<!-- QHistoryStructure&#45;&gt;SelfCorrecting -->
<g id="edge25" class="edge">
<title>QHistoryStructure&#45;&gt;SelfCorrecting</title>
<path fill="none" stroke="#4b5563" stroke-width="1.3" d="M614.66,-1547.72C594.55,-1529.87 573.07,-1509.41 555,-1489 534.06,-1465.35 513.67,-1436.57 497.9,-1412.64"/>
<polygon fill="#4b5563" stroke="#4b5563" stroke-width="1.3" points="500.7,-1410.53 492.3,-1404.07 494.83,-1414.35 500.7,-1410.53"/>
<text text-anchor="middle" x="611" y="-1463.5" font-family="Helvetica,sans-Serif" font-size="10.00">intensity = f(past events),</text>
<text text-anchor="middle" x="611" y="-1452.5" font-family="Helvetica,sans-Serif" font-size="10.00">subtractive, full history</text>
</g>
<!-- Renewal -->
<g id="node22" class="node">
<title>Renewal</title>
<polygon fill="#fef3c7" stroke="#d97706" stroke-width="1.5" points="776.5,-1410 593.5,-1410 593.5,-1317 776.5,-1317 776.5,-1410"/>
<text text-anchor="middle" x="685" y="-1397.2" font-family="Helvetica,sans-Serif" font-size="11.00">Renewal process</text>
<text text-anchor="middle" x="685" y="-1372.2" font-family="Helvetica,sans-Serif" font-size="11.00">Inter&#45;event intervals ~ i.i.d.</text>
<text text-anchor="middle" x="685" y="-1360.2" font-family="Helvetica,sans-Serif" font-size="11.00">(gamma, Weibull, log&#45;normal...)</text>
<text text-anchor="middle" x="685" y="-1348.2" font-family="Helvetica,sans-Serif" font-size="11.00">Memory&#45;1: only last event matters</text>
<text text-anchor="middle" x="685" y="-1336.2" font-family="Helvetica,sans-Serif" font-size="11.00">Direction set by hazard shape</text>
<text text-anchor="middle" x="685" y="-1324.2" font-family="Helvetica,sans-Serif" font-size="11.00">(shape&lt;1 bursty, shape&gt;1 regular)</text>
</g>
<!-- QHistoryStructure&#45;&gt;Renewal -->
<g id="edge26" class="edge">
<title>QHistoryStructure&#45;&gt;Renewal</title>
<path fill="none" stroke="#4b5563" stroke-width="1.3" d="M677.37,-1513.33C676.7,-1487.1 676.64,-1458.39 678,-1432 678.19,-1428.25 678.45,-1424.39 678.74,-1420.5"/>
<polygon fill="#4b5563" stroke="#4b5563" stroke-width="1.3" points="682.26,-1420.46 679.62,-1410.2 675.29,-1419.87 682.26,-1420.46"/>
<text text-anchor="middle" x="723.5" y="-1463.5" font-family="Helvetica,sans-Serif" font-size="10.00">intervals themselves</text>
<text text-anchor="middle" x="723.5" y="-1452.5" font-family="Helvetica,sans-Serif" font-size="10.00">are i.i.d. (memory&#45;1)</text>
</g>
<!-- Hawkes&#45;&gt;QPointGOF -->
<g id="edge29" class="edge">
<title>Hawkes&#45;&gt;QPointGOF</title>
<path fill="none" stroke="#4b5563" stroke-width="1.3" d="M821.01,-1328.81C761,-1300.72 675.56,-1260.73 613.33,-1231.6"/>
<polygon fill="#4b5563" stroke="#4b5563" stroke-width="1.3" points="614.48,-1228.27 603.94,-1227.2 611.51,-1234.61 614.48,-1228.27"/>
</g>
<!-- SelfCorrecting&#45;&gt;QPointGOF -->
<g id="edge30" class="edge">
<title>SelfCorrecting&#45;&gt;QPointGOF</title>
<path fill="none" stroke="#4b5563" stroke-width="1.3" d="M483.24,-1322.99C490.37,-1304.52 499.05,-1282 507.16,-1260.99"/>
<polygon fill="#4b5563" stroke="#4b5563" stroke-width="1.3" points="510.5,-1262.04 510.84,-1251.45 503.97,-1259.52 510.5,-1262.04"/>
</g>
<!-- Renewal&#45;&gt;QPointGOF -->
<g id="edge31" class="edge">
<title>Renewal&#45;&gt;QPointGOF</title>
<path fill="none" stroke="#4b5563" stroke-width="1.3" d="M643.87,-1316.9C624.91,-1295.89 602.26,-1270.78 582.39,-1248.76"/>
<polygon fill="#4b5563" stroke="#4b5563" stroke-width="1.3" points="584.79,-1246.18 575.49,-1241.1 579.59,-1250.87 584.79,-1246.18"/>
</g>
<!-- QPointGOF&#45;&gt;QSubject -->
<g id="edge33" class="edge">
<title>QPointGOF&#45;&gt;QSubject</title>
<path fill="none" stroke="#4b5563" stroke-width="1.3" d="M473.43,-1153.16C428.77,-1124.04 367.8,-1084.28 322.46,-1054.72"/>
<polygon fill="#4b5563" stroke="#4b5563" stroke-width="1.3" points="324.18,-1051.67 313.89,-1049.14 320.36,-1057.53 324.18,-1051.67"/>
<text text-anchor="middle" x="399.5" y="-1094" font-family="Helvetica,sans-Serif" font-size="10.00">YES</text>
</g>
<!-- Refine -->
<g id="node28" class="node">
<title>Refine</title>
<polygon fill="#fce7f3" stroke="#be185d" stroke-width="1.5" points="618.5,-548.5 447.5,-548.5 447.5,-455.5 618.5,-455.5 618.5,-548.5"/>
<text text-anchor="middle" x="533" y="-535.7" font-family="Helvetica,sans-Serif" font-size="11.00">Refine within current branch:</text>
<text text-anchor="middle" x="533" y="-523.7" font-family="Helvetica,sans-Serif" font-size="11.00">add trend / switch dispersion</text>
<text text-anchor="middle" x="533" y="-511.7" font-family="Helvetica,sans-Serif" font-size="11.00">family / add history term /</text>
<text text-anchor="middle" x="533" y="-499.7" font-family="Helvetica,sans-Serif" font-size="11.00">reconsider bin width</text>
<text text-anchor="middle" x="533" y="-474.7" font-family="Helvetica,sans-Serif" font-size="11.00">(loop back to nearest</text>
<text text-anchor="middle" x="533" y="-462.7" font-family="Helvetica,sans-Serif" font-size="11.00">relevant decision, not to START)</text>
</g>
<!-- QPointGOF&#45;&gt;Refine -->
<g id="edge32" class="edge">
<title>QPointGOF&#45;&gt;Refine</title>
<path fill="none" stroke="#4b5563" stroke-width="1.3" d="M533,-1123.96C533,-1090.79 533,-1050.31 533,-1014 533,-1014 533,-1014 533,-706 533,-656.13 533,-599.36 533,-558.57"/>
<polygon fill="#4b5563" stroke="#4b5563" stroke-width="1.3" points="536.5,-558.55 533,-548.55 529.5,-558.55 536.5,-558.55"/>
<text text-anchor="middle" x="559" y="-859" font-family="Helvetica,sans-Serif" font-size="10.00">NO, poor fit</text>
</g>
<!-- Mixed -->
<g id="node25" class="node">
<title>Mixed</title>
<polygon fill="#f5f3ff" stroke="#7c3aed" stroke-width="1.5" points="448,-896 302,-896 302,-827 448,-827 448,-896"/>
<text text-anchor="middle" x="375" y="-883.2" font-family="Helvetica,sans-Serif" font-size="11.00">Hierarchical model / GEE</text>
<text text-anchor="middle" x="375" y="-858.2" font-family="Helvetica,sans-Serif" font-size="11.00">Random subject effect</text>
<text text-anchor="middle" x="375" y="-846.2" font-family="Helvetica,sans-Serif" font-size="11.00">or frailty term</text>
<text text-anchor="middle" x="375" y="-834.2" font-family="Helvetica,sans-Serif" font-size="11.00">(avoids pseudo&#45;replication)</text>
</g>
<!-- QSubject&#45;&gt;Mixed -->
<g id="edge34" class="edge">
<title>QSubject&#45;&gt;Mixed</title>
<path fill="none" stroke="#4b5563" stroke-width="1.3" d="M292.95,-969.16C308.59,-948.84 327.2,-924.64 342.75,-904.43"/>
<polygon fill="#4b5563" stroke="#4b5563" stroke-width="1.3" points="345.66,-906.39 348.98,-896.33 340.11,-902.12 345.66,-906.39"/>
<text text-anchor="middle" x="335.5" y="-927" font-family="Helvetica,sans-Serif" font-size="10.00">YES</text>
</g>
<!-- Fixed -->
<g id="node26" class="node">
<title>Fixed</title>
<polygon fill="#f5f3ff" stroke="#7c3aed" stroke-width="1.5" points="265.5,-902 148.5,-902 148.5,-821 265.5,-821 265.5,-902"/>
<text text-anchor="middle" x="207" y="-889.2" font-family="Helvetica,sans-Serif" font-size="11.00">Fixed effects only</text>
<text text-anchor="middle" x="207" y="-864.2" font-family="Helvetica,sans-Serif" font-size="11.00">(one subject/session</text>
<text text-anchor="middle" x="207" y="-852.2" font-family="Helvetica,sans-Serif" font-size="11.00">per group, or already</text>
<text text-anchor="middle" x="207" y="-840.2" font-family="Helvetica,sans-Serif" font-size="11.00">collapsed to one</text>
<text text-anchor="middle" x="207" y="-828.2" font-family="Helvetica,sans-Serif" font-size="11.00">rate per subject)</text>
</g>
<!-- QSubject&#45;&gt;Fixed -->
<g id="edge35" class="edge">
<title>QSubject&#45;&gt;Fixed</title>
<path fill="none" stroke="#4b5563" stroke-width="1.3" d="M242.79,-963.46C236.93,-946.93 230.37,-928.43 224.49,-911.84"/>
<polygon fill="#4b5563" stroke="#4b5563" stroke-width="1.3" points="227.75,-910.57 221.11,-902.31 221.16,-912.91 227.75,-910.57"/>
<text text-anchor="middle" x="240" y="-927" font-family="Helvetica,sans-Serif" font-size="10.00">NO</text>
</g>
<!-- Validate -->
<g id="node27" class="node">
<title>Validate</title>
<polygon fill="#fce7f3" stroke="#be185d" stroke-width="1.5" points="317,-776 172,-707 317,-638 462,-707 317,-776"/>
<text text-anchor="middle" x="317" y="-728.7" font-family="Helvetica,sans-Serif" font-size="11.00">Good model fit?</text>
<text text-anchor="middle" x="317" y="-703.7" font-family="Helvetica,sans-Serif" font-size="11.00">Residuals</text>
<text text-anchor="middle" x="317" y="-691.7" font-family="Helvetica,sans-Serif" font-size="11.00">Goodness&#45;of&#45;fit</text>
<text text-anchor="middle" x="317" y="-679.7" font-family="Helvetica,sans-Serif" font-size="11.00">Posterior predictive checks</text>
</g>
<!-- Mixed&#45;&gt;Validate -->
<g id="edge36" class="edge">
<title>Mixed&#45;&gt;Validate</title>
<path fill="none" stroke="#4b5563" stroke-width="1.3" d="M362.13,-826.66C356.38,-811.55 349.4,-793.19 342.66,-775.47"/>
<polygon fill="#4b5563" stroke="#4b5563" stroke-width="1.3" points="345.78,-773.82 338.95,-765.72 339.24,-776.31 345.78,-773.82"/>
</g>
<!-- Fixed&#45;&gt;Validate -->
<g id="edge37" class="edge">
<title>Fixed&#45;&gt;Validate</title>
<path fill="none" stroke="#4b5563" stroke-width="1.3" d="M235.61,-820.83C247.48,-804.38 261.5,-784.94 274.53,-766.88"/>
<polygon fill="#4b5563" stroke="#4b5563" stroke-width="1.3" points="277.42,-768.86 280.43,-758.7 271.74,-764.76 277.42,-768.86"/>
</g>
<!-- Validate&#45;&gt;Refine -->
<g id="edge38" class="edge">
<title>Validate&#45;&gt;Refine</title>
<path fill="none" stroke="#4b5563" stroke-width="1.3" d="M365.21,-660.7C398.27,-629.63 442.24,-588.3 476.88,-555.74"/>
<polygon fill="#4b5563" stroke="#4b5563" stroke-width="1.3" points="479.68,-557.92 484.57,-548.52 474.88,-552.81 479.68,-557.92"/>
<text text-anchor="middle" x="426" y="-608" font-family="Helvetica,sans-Serif" font-size="10.00">NO</text>
</g>
<!-- QParamVector -->
<g id="node29" class="node">
<title>QParamVector</title>
<polygon fill="#dcfce7" stroke="#15803d" stroke-width="1.5" points="272,-583 133,-502 272,-421 411,-502 272,-583"/>
<text text-anchor="middle" x="272" y="-529.7" font-family="Helvetica,sans-Serif" font-size="11.00">Which parameter(s)</text>
<text text-anchor="middle" x="272" y="-517.7" font-family="Helvetica,sans-Serif" font-size="11.00">does Group modify?</text>
<text text-anchor="middle" x="272" y="-492.7" font-family="Helvetica,sans-Serif" font-size="11.00">baseline rate only, or also</text>
<text text-anchor="middle" x="272" y="-480.7" font-family="Helvetica,sans-Serif" font-size="11.00">kernel/branching ratio,</text>
<text text-anchor="middle" x="272" y="-468.7" font-family="Helvetica,sans-Serif" font-size="11.00">shape, decay?</text>
</g>
<!-- Validate&#45;&gt;QParamVector -->
<g id="edge39" class="edge">
<title>Validate&#45;&gt;QParamVector</title>
<path fill="none" stroke="#4b5563" stroke-width="1.3" d="M303.32,-644.27C299.09,-625.22 294.38,-603.95 289.92,-583.82"/>
<polygon fill="#4b5563" stroke="#4b5563" stroke-width="1.3" points="293.33,-583.05 287.75,-574.05 286.5,-584.57 293.33,-583.05"/>
<text text-anchor="middle" x="306.5" y="-608" font-family="Helvetica,sans-Serif" font-size="10.00">YES</text>
</g>
<!-- Group -->
<g id="node30" class="node">
<title>Group</title>
<polygon fill="#dcfce7" stroke="#15803d" stroke-width="1.5" points="337.5,-376 206.5,-376 206.5,-319 337.5,-319 337.5,-376"/>
<text text-anchor="middle" x="272" y="-363.2" font-family="Helvetica,sans-Serif" font-size="11.00">Estimate group effect(s)</text>
<text text-anchor="middle" x="272" y="-338.2" font-family="Helvetica,sans-Serif" font-size="11.00">βGroup (single param)</text>
<text text-anchor="middle" x="272" y="-326.2" font-family="Helvetica,sans-Serif" font-size="11.00">or θGroup (vector)</text>
</g>
<!-- QParamVector&#45;&gt;Group -->
<g id="edge40" class="edge">
<title>QParamVector&#45;&gt;Group</title>
<path fill="none" stroke="#4b5563" stroke-width="1.3" d="M272,-420.73C272,-408.68 272,-396.75 272,-386.18"/>
<polygon fill="#4b5563" stroke="#4b5563" stroke-width="1.3" points="275.5,-386.09 272,-376.09 268.5,-386.09 275.5,-386.09"/>
</g>
<!-- Test -->
<g id="node31" class="node">
<title>Test</title>
<polygon fill="#dcfce7" stroke="#15803d" stroke-width="1.5" points="326.5,-274 217.5,-274 217.5,-205 326.5,-205 326.5,-274"/>
<text text-anchor="middle" x="272" y="-261.2" font-family="Helvetica,sans-Serif" font-size="11.00">Inference</text>
<text text-anchor="middle" x="272" y="-236.2" font-family="Helvetica,sans-Serif" font-size="11.00">Likelihood ratio test</text>
<text text-anchor="middle" x="272" y="-224.2" font-family="Helvetica,sans-Serif" font-size="11.00">(nested models)</text>
<text text-anchor="middle" x="272" y="-212.2" font-family="Helvetica,sans-Serif" font-size="11.00">Wald test / CIs</text>
</g>
<!-- Group&#45;&gt;Test -->
<g id="edge41" class="edge">
<title>Group&#45;&gt;Test</title>
<path fill="none" stroke="#4b5563" stroke-width="1.3" d="M272,-318.93C272,-308.39 272,-296.11 272,-284.42"/>
<polygon fill="#4b5563" stroke="#4b5563" stroke-width="1.3" points="275.5,-284.37 272,-274.37 268.5,-284.37 275.5,-284.37"/>
</g>
<!-- Bootstrap -->
<g id="node32" class="node">
<title>Bootstrap</title>
<polygon fill="#dcfce7" stroke="#15803d" stroke-width="1.5" points="249.5,-160 142.5,-160 142.5,-103 249.5,-103 249.5,-160"/>
<text text-anchor="middle" x="196" y="-147.2" font-family="Helvetica,sans-Serif" font-size="11.00">Bootstrap</text>
<text text-anchor="middle" x="196" y="-122.2" font-family="Helvetica,sans-Serif" font-size="11.00">Resample subjects</text>
<text text-anchor="middle" x="196" y="-110.2" font-family="Helvetica,sans-Serif" font-size="11.00">(not events)</text>
</g>
<!-- Test&#45;&gt;Bootstrap -->
<g id="edge42" class="edge">
<title>Test&#45;&gt;Bootstrap</title>
<path fill="none" stroke="#4b5563" stroke-width="1.3" d="M247.95,-204.96C239.62,-193.34 230.26,-180.28 221.79,-168.48"/>
<polygon fill="#4b5563" stroke="#4b5563" stroke-width="1.3" points="224.49,-166.23 215.82,-160.14 218.8,-170.31 224.49,-166.23"/>
</g>
<!-- Permutation -->
<g id="node33" class="node">
<title>Permutation</title>
<polygon fill="#dcfce7" stroke="#15803d" stroke-width="1.5" points="414.5,-160 285.5,-160 285.5,-103 414.5,-103 414.5,-160"/>
<text text-anchor="middle" x="350" y="-147.2" font-family="Helvetica,sans-Serif" font-size="11.00">Permutation test</text>
<text text-anchor="middle" x="350" y="-122.2" font-family="Helvetica,sans-Serif" font-size="11.00">Shuffle group labels</text>
<text text-anchor="middle" x="350" y="-110.2" font-family="Helvetica,sans-Serif" font-size="11.00">(distribution&#45;free check)</text>
</g>
<!-- Test&#45;&gt;Permutation -->
<g id="edge43" class="edge">
<title>Test&#45;&gt;Permutation</title>
<path fill="none" stroke="#4b5563" stroke-width="1.3" d="M296.68,-204.96C305.23,-193.34 314.84,-180.28 323.53,-168.48"/>
<polygon fill="#4b5563" stroke="#4b5563" stroke-width="1.3" points="326.55,-170.27 329.66,-160.14 320.91,-166.12 326.55,-170.27"/>
</g>
<!-- RobustnessNote -->
<g id="node34" class="node">
<title>RobustnessNote</title>
<polygon fill="#f0fdf4" stroke="#15803d" stroke-width="1.5" points="349,-58 189,-58 189,0 355,0 355,-52 349,-58"/>
<polyline fill="none" stroke="#15803d" stroke-width="1.5" points="349,-58 349,-52 "/>
<polyline fill="none" stroke="#15803d" stroke-width="1.5" points="355,-52 349,-52 "/>
<text text-anchor="middle" x="272" y="-46.8" font-family="Helvetica,sans-Serif" font-size="9.00">Bootstrap and permutation are</text>
<text text-anchor="middle" x="272" y="-36.8" font-family="Helvetica,sans-Serif" font-size="9.00">complementary robustness checks,</text>
<text text-anchor="middle" x="272" y="-26.8" font-family="Helvetica,sans-Serif" font-size="9.00">not both mandatory — pick based on</text>
<text text-anchor="middle" x="272" y="-16.8" font-family="Helvetica,sans-Serif" font-size="9.00">how much you trust parametric</text>
<text text-anchor="middle" x="272" y="-6.8" font-family="Helvetica,sans-Serif" font-size="9.00">assumptions and independence.</text>
</g>
<!-- Bootstrap&#45;&gt;RobustnessNote -->
<g id="edge44" class="edge">
<title>Bootstrap&#45;&gt;RobustnessNote</title>
<path fill="none" stroke="#4b5563" stroke-width="1.3" stroke-dasharray="5,2" d="M216.97,-102.77C227.43,-88.94 240.05,-72.25 250.57,-58.34"/>
</g>
<!-- Permutation&#45;&gt;RobustnessNote -->
<g id="edge45" class="edge">
<title>Permutation&#45;&gt;RobustnessNote</title>
<path fill="none" stroke="#4b5563" stroke-width="1.3" stroke-dasharray="5,2" d="M328.48,-102.77C317.75,-88.94 304.79,-72.25 293.99,-58.34"/>
</g>
</g>
</svg>
